<svg width="167" height="40" viewBox="0 0 167 40" fill="none" xmlns="http://www.w3.org/2000/svg">
<rect width="167" height="40" fill="#EBEBEB"/>
<path opacity="0.3" d="M39.3908 27H41.1988V15.336H44.7188V27H46.5268V14.04H39.3908V27ZM51.8591 27.144C54.4671 27.144 55.3951 25.496 55.3951 22.952V18.024C55.3951 15.48 54.4671 13.928 51.8591 13.928C49.2351 13.928 48.3071 15.464 48.3071 18.024V22.936C48.3071 25.512 49.2191 27.144 51.8591 27.144ZM51.8591 25.72C50.4031 25.72 50.1311 24.776 50.1311 23.336V17.656C50.1311 16.216 50.4031 15.336 51.8591 15.336C53.2991 15.336 53.5711 16.216 53.5711 17.656V23.336C53.5711 24.776 53.2991 25.72 51.8591 25.72ZM57.1721 27H58.9801V20.68H59.6681L62.2921 27H64.1001L61.2201 20.2L63.7801 14.04H61.9721L59.6521 19.8H58.9801V14.04H57.1721V27ZM64.5931 27H66.2891L66.9131 23.736H69.5531L70.1451 27H71.8571L69.0891 14.04H67.3451L64.5931 27ZM67.1531 22.44L68.2251 16.6L69.3131 22.44H67.1531ZM76.0041 27.144C78.3081 27.144 79.2041 25.656 79.2041 23.352C79.2041 21.592 78.5001 20.536 77.3481 20.152C78.4681 19.832 79.2041 18.84 79.2041 17.272C79.2041 15.208 77.9881 13.928 75.8601 13.928C73.7481 13.928 72.5641 15.176 72.5641 17.24V17.672H74.2761V17.256C74.3561 16.104 74.7881 15.32 75.9241 15.32C77.0921 15.32 77.4921 16.104 77.4921 17.272C77.4921 18.648 76.9641 19.416 75.3161 19.512C75.2041 19.528 74.9801 19.528 74.8521 19.528V20.904C74.9961 20.904 75.2201 20.904 75.3481 20.92C77.0121 21.032 77.4921 22.008 77.4921 23.352C77.4921 24.776 77.2361 25.72 76.0041 25.72C74.8681 25.72 74.5801 24.936 74.5481 23.832C74.5321 23.704 74.5321 23.528 74.5321 23.384H72.8361V23.816C72.8361 25.88 73.8921 27.144 76.0041 27.144ZM80.1556 27H81.8516L82.4756 23.736H85.1156L85.7076 27H87.4196L84.6516 14.04H82.9076L80.1556 27ZM82.7156 22.44L83.7876 16.6L84.8756 22.44H82.7156ZM89.7367 27H91.5447V15.384H93.6727V14.04H87.5447V15.384H89.7367V27ZM94.9221 27H97.3221C100.122 27 101.386 25.88 101.386 23.208C101.386 20.232 100.042 19.432 97.2421 19.432H96.7301V14.04H94.9221V27ZM96.7301 25.704V20.744H97.2901C99.1141 20.744 99.6901 21.432 99.6901 23.192C99.6901 25.32 98.9381 25.704 97.3221 25.704H96.7301ZM106.485 27H109.941C112.261 27 113.269 25.544 113.269 23.304C113.269 21.464 112.613 20.392 111.061 20.024C112.325 19.848 112.917 18.888 112.917 17.288C112.917 15.064 111.797 14.04 109.461 14.04H106.485V27ZM108.293 19.448V15.384H108.725C110.565 15.384 111.349 15.512 111.349 17.288C111.349 18.824 110.885 19.448 109.365 19.448H108.293ZM108.293 25.704V20.824H109.365C110.949 20.824 111.541 21.688 111.541 23.304C111.541 24.984 111.125 25.704 109.509 25.704H108.293ZM118.123 27.144C120.667 27.144 121.387 25.528 121.387 23.144V22.184H119.675V23.144C119.675 24.68 119.595 25.72 118.139 25.72C116.891 25.72 116.459 25.08 116.459 23.128V17.992C116.459 16.392 116.603 15.336 118.139 15.336C119.643 15.336 119.675 16.328 119.675 17.768V18.68H121.387V17.656C121.387 15.32 120.539 13.928 118.123 13.928C115.371 13.928 114.635 15.64 114.635 18.264V22.84C114.635 25.256 115.371 27.144 118.123 27.144ZM123.11 27H128.166V25.704H124.918V20.952H127.526V19.672H124.918V15.384H128.134V14.04H123.11V27Z" fill="#444444"/>
</svg>
